<svg xmlns="http://www.w3.org/2000/svg" width="185" height="28" viewBox="0 0 185 28" fill="none"><path d="M4.872 20V19.496L7.08 19.136V1.4H3.12L1.296 6.152H0.6V0.8H16.224V6.152H15.504L13.704 1.4H9.72V19.136L11.928 19.496V20H4.872ZM20.9252 20.24C19.7732 20.24 18.8612 19.952 18.1892 19.376C17.5332 18.8 17.2052 17.944 17.2052 16.808V8.288L15.5252 8.048V7.568H19.6052V16.76C19.6052 17.576 19.7732 18.216 20.1092 18.68C20.4452 19.144 20.9652 19.376 21.6692 19.376C22.4052 19.376 23.1092 19.136 23.7812 18.656C24.4692 18.16 25.0772 17.552 25.6052 16.832V8.288L23.9252 8.048V7.568H28.0052V19.28L29.6852 19.52V20H25.6052V17.696C25.0292 18.496 24.3332 19.12 23.5172 19.568C22.7172 20.016 21.8532 20.24 20.9252 20.24ZM33.4973 4.784C33.0493 4.784 32.6653 4.632 32.3453 4.328C32.0253 4.008 31.8652 3.624 31.8652 3.176C31.8652 2.728 32.0173 2.352 32.3213 2.048C32.6413 1.744 33.0333 1.592 33.4973 1.592C33.9293 1.592 34.2973 1.744 34.6013 2.048C34.9053 2.352 35.0573 2.728 35.0573 3.176C35.0573 3.624 34.9053 4.008 34.6013 4.328C34.2973 4.632 33.9293 4.784 33.4973 4.784ZM30.9533 20V19.52L32.6333 19.28V8.312L30.9533 8.072V7.592H35.0333V19.28L36.7133 19.52V20H30.9533ZM37.8668 19.52L39.5468 19.28V8.288L37.8668 8.048V7.568H41.9468V10.16C42.5388 9.296 43.2348 8.616 44.0348 8.12C44.8348 7.608 45.6988 7.352 46.6268 7.352C47.7788 7.352 48.6828 7.64 49.3387 8.216C50.0108 8.792 50.3468 9.648 50.3468 10.784V19.28L52.0268 19.52V20H46.5068V19.52L47.9468 19.28V10.832C47.9468 10 47.7788 9.36 47.4428 8.912C47.1068 8.448 46.5868 8.216 45.8828 8.216C45.1468 8.216 44.4348 8.488 43.7468 9.032C43.0748 9.56 42.4748 10.216 41.9468 11V19.28L43.3867 19.52V20H37.8668V19.52ZM55.6691 4.784C55.2211 4.784 54.8371 4.632 54.5171 4.328C54.1971 4.008 54.0371 3.624 54.0371 3.176C54.0371 2.728 54.1891 2.352 54.4931 2.048C54.8131 1.744 55.2051 1.592 55.6691 1.592C56.1011 1.592 56.4691 1.744 56.7731 2.048C57.0771 2.352 57.2291 2.728 57.2291 3.176C57.2291 3.624 57.0771 4.008 56.7731 4.328C56.4691 4.632 56.1011 4.784 55.6691 4.784ZM53.1251 20V19.52L54.8051 19.28V8.312L53.1251 8.072V7.592H57.2051V19.28L58.8851 19.52V20H53.1251ZM66.7586 20.24C65.5746 20.24 64.5026 19.976 63.5426 19.448C62.5826 18.904 61.8226 18.144 61.2626 17.168C60.7026 16.192 60.4226 15.064 60.4226 13.784C60.4226 12.504 60.6946 11.384 61.2386 10.424C61.7986 9.448 62.5426 8.696 63.4706 8.168C64.4146 7.624 65.4626 7.352 66.6146 7.352C67.6226 7.352 68.5266 7.576 69.3266 8.024C70.1266 8.472 70.7506 9.096 71.1986 9.896C71.6466 10.68 71.8786 11.584 71.8946 12.608H63.0626V14.984C63.0626 16.392 63.3746 17.536 63.9986 18.416C64.6386 19.28 65.5586 19.712 66.7586 19.712C67.8626 19.712 68.8386 19.4 69.6866 18.776C70.5346 18.152 71.0546 17.344 71.2466 16.352H71.7986C71.5746 17.536 71.0066 18.48 70.0946 19.184C69.1826 19.888 68.0706 20.24 66.7586 20.24ZM69.2546 12.008C69.2546 10.616 69.0386 9.584 68.6066 8.912C68.1746 8.224 67.5026 7.88 66.5906 7.88C65.5186 7.88 64.6866 8.256 64.0946 9.008C63.5026 9.76 63.1666 10.76 63.0866 12.008H69.2546ZM73.4918 19.52L75.1718 19.28V8.288L73.4918 8.048V7.568H77.5718V9.416C78.5798 8.04 79.7158 7.352 80.9798 7.352C81.5878 7.352 82.1238 7.512 82.5878 7.832C83.0518 8.136 83.2838 8.576 83.2838 9.152C83.2838 9.568 83.1478 9.92 82.8758 10.208C82.6038 10.48 82.2438 10.616 81.7958 10.616C81.2838 10.616 80.8678 10.416 80.5478 10.016C80.7238 9.792 80.8118 9.552 80.8118 9.296C80.8118 9.024 80.7158 8.808 80.5238 8.648C80.3478 8.472 80.1078 8.384 79.8038 8.384C79.4678 8.384 79.1238 8.544 78.7718 8.864C78.4198 9.168 78.0198 9.648 77.5718 10.304V19.28L79.4918 19.52V20H73.4918V19.52ZM90.5946 20.24C89.4106 20.24 88.3386 19.976 87.3786 19.448C86.4186 18.904 85.6586 18.144 85.0986 17.168C84.5386 16.192 84.2586 15.064 84.2586 13.784C84.2586 12.504 84.5306 11.384 85.0746 10.424C85.6346 9.448 86.3786 8.696 87.3066 8.168C88.2506 7.624 89.2986 7.352 90.4506 7.352C91.4586 7.352 92.3626 7.576 93.1626 8.024C93.9626 8.472 94.5866 9.096 95.0346 9.896C95.4826 10.68 95.7146 11.584 95.7306 12.608H86.8986V14.984C86.8986 16.392 87.2106 17.536 87.8346 18.416C88.4746 19.28 89.3946 19.712 90.5946 19.712C91.6986 19.712 92.6746 19.4 93.5226 18.776C94.3706 18.152 94.8906 17.344 95.0826 16.352H95.6346C95.4106 17.536 94.8426 18.48 93.9306 19.184C93.0186 19.888 91.9066 20.24 90.5946 20.24ZM93.0906 12.008C93.0906 10.616 92.8746 9.584 92.4426 8.912C92.0106 8.224 91.3386 7.88 90.4266 7.88C89.3546 7.88 88.5226 8.256 87.9306 9.008C87.3386 9.76 87.0026 10.76 86.9226 12.008H93.0906ZM97.3277 19.52L99.0077 19.28V8.288L97.3277 8.048V7.568H101.408V10.16C102 9.296 102.696 8.616 103.496 8.12C104.296 7.608 105.16 7.352 106.088 7.352C107.24 7.352 108.144 7.64 108.8 8.216C109.472 8.792 109.808 9.648 109.808 10.784V19.28L111.488 19.52V20H105.968V19.52L107.408 19.28V10.832C107.408 10 107.24 9.36 106.904 8.912C106.568 8.448 106.048 8.216 105.344 8.216C104.608 8.216 103.896 8.488 103.208 9.032C102.536 9.56 101.936 10.216 101.408 11V19.28L102.848 19.52V20H97.3277V19.52Z" fill="#2F7955"></path><path d="M121.898 20.48C120.154 20.48 118.626 20.056 117.314 19.208C116.002 18.36 114.986 17.176 114.266 15.656C113.562 14.136 113.21 12.384 113.21 10.4C113.21 8.416 113.586 6.664 114.338 5.144C115.09 3.624 116.138 2.44 117.482 1.592C118.842 0.743999 120.394 0.319999 122.138 0.319999C123.786 0.319999 125.178 0.735999 126.314 1.568L127.778 0.319999H128.282V6.272H127.778L126.194 2.312C125.042 1.352 123.69 0.871999 122.138 0.871999C121.018 0.871999 120.01 1.16 119.114 1.736C118.234 2.312 117.538 3.152 117.026 4.256C116.53 5.36 116.282 6.672 116.282 8.192V12.584C116.282 14.104 116.514 15.416 116.978 16.52C117.458 17.624 118.114 18.472 118.946 19.064C119.794 19.64 120.778 19.928 121.898 19.928C123.274 19.928 124.338 19.504 125.09 18.656C125.858 17.808 126.242 16.672 126.242 15.248V13.016L124.01 12.68V12.152H131.186V12.68L128.954 13.016V15.248C128.954 16.16 128.706 17.016 128.21 17.816C127.714 18.6 126.938 19.24 125.882 19.736C124.826 20.232 123.498 20.48 121.898 20.48ZM136.777 20.24C135.625 20.24 134.713 19.952 134.041 19.376C133.385 18.8 133.057 17.944 133.057 16.808V8.288L131.377 8.048V7.568H135.457V16.76C135.457 17.576 135.625 18.216 135.961 18.68C136.297 19.144 136.817 19.376 137.521 19.376C138.257 19.376 138.961 19.136 139.633 18.656C140.321 18.16 140.929 17.552 141.457 16.832V8.288L139.777 8.048V7.568H143.857V19.28L145.537 19.52V20H141.457V17.696C140.881 18.496 140.185 19.12 139.369 19.568C138.569 20.016 137.705 20.24 136.777 20.24ZM148.965 27.008C148.133 27.008 147.461 26.8 146.949 26.384C146.437 25.968 146.181 25.408 146.181 24.704C146.181 24.224 146.317 23.832 146.589 23.528C146.877 23.24 147.229 23.096 147.645 23.096C147.949 23.096 148.221 23.16 148.461 23.288C148.701 23.416 148.893 23.608 149.037 23.864C148.797 24.2 148.677 24.552 148.677 24.92C148.677 25.24 148.781 25.504 148.989 25.712C149.197 25.92 149.461 26.024 149.781 26.024C150.165 26.024 150.493 25.896 150.765 25.64C151.053 25.384 151.309 24.936 151.533 24.296L152.973 20.168L147.405 8.312L145.797 8.072V7.592H151.773V8.072L150.093 8.36L154.101 16.928L156.957 8.672L154.893 8.072V7.592H159.213V8.072L157.581 8.672L152.205 24.296C151.869 25.24 151.461 25.928 150.981 26.36C150.517 26.792 149.845 27.008 148.965 27.008ZM159.929 20.24C159.529 20.24 159.185 20.104 158.897 19.832C158.625 19.544 158.489 19.2 158.489 18.8C158.489 18.4 158.625 18.072 158.897 17.816C159.185 17.544 159.529 17.408 159.929 17.408C160.329 17.408 160.665 17.544 160.937 17.816C161.209 18.072 161.345 18.4 161.345 18.8C161.345 19.2 161.209 19.544 160.937 19.832C160.665 20.104 160.329 20.24 159.929 20.24ZM163.187 19.52L164.867 19.28V8.288L163.187 8.048V7.568H167.267V10.16C167.859 9.296 168.555 8.616 169.355 8.12C170.155 7.608 171.019 7.352 171.947 7.352C173.099 7.352 174.003 7.64 174.659 8.216C175.331 8.792 175.667 9.648 175.667 10.784V19.28L177.347 19.52V20H171.827V19.52L173.267 19.28V10.832C173.267 10 173.099 9.36 172.763 8.912C172.427 8.448 171.907 8.216 171.203 8.216C170.467 8.216 169.755 8.488 169.067 9.032C168.395 9.56 167.795 10.216 167.267 11V19.28L168.707 19.52V20H163.187V19.52ZM178.253 20V19.52L180.053 19.28V1.52L178.253 1.28V0.8H182.453V19.28L184.133 19.52V20H178.253Z" fill="#141417"></path></svg>